<svg xmlns="http://www.w3.org/2000/svg" id="SvgjsSvg240778" width="4096" height="3891.326164874551" version="1.1" xmlns:xlink="http://www.w3.org/1999/xlink" xmlns:svgjs="http://svgjs.com/svgjs"><defs id="SvgjsDefs240779"></defs><g id="SvgjsG240780" transform="translate(327.9999999999998, 328) scale(34.4)" opacity="1"><defs id="SvgjsDefs58840"><linearGradient id="SvgjsLinearGradient1zq0ZFcxJ" gradientUnits="userSpaceOnUse" x1="2.8421709430404e-14" y1="267.7" x2="267.7" y2="-1.4210854715202e-14"><stop id="SvgjsStop58843" stop-color="#19335a" offset="0"></stop><stop id="SvgjsStop58844" stop-color="#0c58b6" offset="0.786"></stop></linearGradient></defs><g id="SvgjsG58841" transform="scale(0.3301164591487172)" opacity="1"><g id="SvgjsG58845" class="K6Tn39vgm" transform="translate(60.5846798780488, 0) scale(0.6789467300491085)" light-content="false" non-strokable="false" fill="url(#SvgjsLinearGradient1zq0ZFcxJ)"><path d="M219.6 48.1c-22.9-22.9-53.4-35.5-85.8-35.5S71 25.2 48.1 48.1s-35.5 53.4-35.5 85.8 12.6 62.9 35.5 85.8 53.4 35.5 85.8 35.5 62.9-12.6 85.8-35.5 35.5-53.4 35.5-85.8-12.7-62.9-35.6-85.8z"></path><path d="M133.8 0C59.9 0 0 59.9 0 133.8s59.9 133.8 133.8 133.8 133.8-59.9 133.8-133.8S207.8 0 133.8 0zm0 260.1c-69.7 0-126.3-56.5-126.3-126.3S64.1 7.6 133.8 7.6s126.3 56.5 126.3 126.3-56.5 126.2-126.3 126.2z"></path></g><g id="SvgjsG58846" class="V0FhlAc2XE" transform="translate(90.32188937043524, 47.75972114769781) scale(0.14502471719543697)" light-content="true" non-strokable="false" fill="#b8bfd6"><path d="M785.005 510.921c-14.64 0-27.187 8.449-33.404 20.663H695.2V368.329h-92.652c-.027 0-.041.014-.068.014v-57.849h147.71c5.607 13.738 19.062 23.434 34.816 23.434 20.772 0 37.62-16.842 37.62-37.615 0-20.774-16.848-37.643-37.62-37.643-15.755 0-29.209 9.722-34.816 23.46H602.478v-56.851c.027 0 .047.014.074.014h92.653v-117.65l64.546-33.876c6.689 6.093 15.497 9.902 25.254 9.902 20.772 0 37.621-16.841 37.621-37.615S805.779 8.44 785.005 8.44c-20.781 0-37.629 16.84-37.629 37.614 0 .706.174 1.357.207 2.063l-80.742 42.38v106.432h-64.289c-.027 0-.047.015-.074.015v-26.162c0-32.712-19.77-94.591-94.578-94.591H335.821c-32.713 0-94.578 19.763-94.578 94.591v26.272c-.222-.015-.408-.126-.629-.126h-64.289V34.642H93.831C88.97 19.491 74.927 8.44 58.161 8.44c-20.773 0-37.621 16.84-37.621 37.614 0 20.774 16.848 37.615 37.621 37.615 14.64 0 27.193-8.448 33.412-20.663h56.389v162.287h92.652c.222 0 .408-.111.629-.125v57.129c-.297-.014-.547-.167-.845-.167H92.972c-5.602-13.752-19.057-23.46-34.811-23.46-20.773 0-37.621 16.841-37.621 37.643 0 20.773 16.848 37.615 37.621 37.615 15.748 0 29.201-9.695 34.811-23.434h147.427c.298 0 .548-.152.845-.166v62.143c-.222-.014-.408-.126-.637-.126h-92.646v114.604l-64.56 33.875c-6.688-6.094-15.49-9.902-25.24-9.902-20.774 0-37.623 16.868-37.623 37.643 0 20.775 16.849 37.615 37.623 37.615 20.773 0 37.621-16.841 37.621-37.615 0-.72-.173-1.385-.207-2.076l80.75-42.395V400.709h64.281c.229 0 .416-.125.637-.125v23.253c0 32.713 19.771 94.563 94.578 94.563h172.078c32.713 0 94.578-19.764 94.578-94.563v-27.158c.027 0 .041.015.068.015h64.289V559.95h82.485c4.849 15.164 18.898 26.229 35.685 26.229 20.772 0 37.621-16.841 37.621-37.614.001-20.775-16.848-37.644-37.62-37.644zm-210.893-87.084c0 63.791-59.385 66.146-66.247 66.201H335.821c-63.854 0-66.16-59.472-66.215-66.201V170.781c0-63.859 59.483-66.172 66.215-66.229h172.078c63.854 0 66.158 59.497 66.213 66.229v253.056z"></path><path d="M514.095 339.236c-.609-19.3-10.508-36.213-25.381-46.576a38.405 38.405 0 0 0-3.238-2.104 59.78 59.78 0 0 0-26.727-8.486 54.888 54.888 0 0 0-5.566-.294c-.965 0-6.604-.006-14.893-.016l-8.928-.105h-4.518v-.131c-21.426-.027-39.803-.05-41.617-.05-15.262 0-27.764-11.96-28.541-26.938l-.004-.084c-.02-.385-.025-.773-.029-1.164.004-.389.01-.777.029-1.163l.004-.083c.777-14.979 13.279-26.939 28.541-26.939 3.354 0 74.312-.075 105.488-.118h3.516c7.838 0 14.18-6.35 14.18-14.182s-6.342-14.182-14.18-14.182h-27.184V150.92c0-7.838-6.35-14.181-14.182-14.181s-14.183 6.343-14.183 14.181v45.771c-13.16.01-27.393.017-29.636.021l-3.312.057V150.92c0-7.838-6.35-14.181-14.182-14.181s-14.182 6.343-14.182 14.181v46.652c-24.731 3.436-44.473 22.572-48.376 47.052h-.062a55.78 55.78 0 0 0-.652 8.432c0 .078.006.154.006.232 0 .079-.006.156-.006.234 0 2.869.232 5.682.652 8.432h.062c4.076 25.562 25.42 45.312 51.686 47.426l28.365.486 17.797.023v-.084h29.51c17.232 0 31.381 14.282 31.422 31.394-.041 17.111-14.066 31.031-31.299 31.031H345.579v.149h-.846c-7.838 0-14.18 6.35-14.18 14.182s6.342 14.182 14.18 14.182h30.64v43.392c0 7.839 6.35 14.182 14.182 14.182s14.182-6.343 14.182-14.182v-43.392h25.626l7.321-.087v43.479c0 7.839 6.351 14.182 14.183 14.182s14.182-6.343 14.182-14.182v-44.613a59.688 59.688 0 0 0 20.428-7.68 38.492 38.492 0 0 0 3.238-2.104c14.873-10.363 24.771-27.276 25.381-46.576.021-.498.031-1 .037-1.502.002-.13.01-.258.01-.388v-.146c0-.13-.008-.258-.01-.388a53.383 53.383 0 0 0-.038-1.502z"></path></g><g id="SvgjsG58847" class="text" transform="translate(151.54, 268.30538109756094) scale(1)" light-content="false" fill="#697a98"><path d="M-134.56 -48.7L-134.56 0L-127.11 0L-127.11 -48.7L-111.06 -48.7L-111.06 -54.91L-151.54 -54.91L-151.54 -48.7Z M-104.46 -54.91L-104.46 0L-70.96 0L-70.96 -6.44L-97.1 -6.44L-97.1 -25.59L-74.37 -25.59L-74.37 -31.95L-97.1 -31.95L-97.1 -48.63L-71.81 -48.63L-71.81 -54.91Z M-19.78 8.84C-21.74 9.51 -23.63 9.85 -25.44 9.85C-28.23 9.85 -30.59 9.05 -32.53 7.45C-34.47 5.84 -35.7 3.62 -36.22 0.78C-28.77 0.41 -23.02 -2.26 -18.96 -7.25C-14.9 -12.24 -12.87 -19.03 -12.87 -27.61C-12.87 -36.4 -15.05 -43.25 -19.39 -48.16C-23.73 -53.07 -29.96 -55.53 -38.08 -55.53C-46.2 -55.53 -52.43 -53.07 -56.77 -48.16C-61.11 -43.25 -63.28 -36.4 -63.28 -27.61C-63.28 -19.54 -61.5 -13.05 -57.93 -8.14C-54.36 -3.23 -49.22 -0.34 -42.5 0.54C-41.98 5.76 -40.22 9.75 -37.23 12.49C-34.23 15.23 -30.45 16.6 -25.9 16.6C-23.27 16.6 -20.5 16.13 -17.6 15.2ZM-50.99 -10.94C-54.02 -14.66 -55.53 -20.22 -55.53 -27.61C-55.53 -34.85 -54.02 -40.28 -50.99 -43.9C-47.97 -47.51 -43.66 -49.32 -38.08 -49.32C-32.49 -49.32 -28.19 -47.5 -25.17 -43.86C-22.14 -40.21 -20.63 -34.8 -20.63 -27.61C-20.63 -20.27 -22.14 -14.72 -25.17 -10.97C-28.19 -7.23 -32.49 -5.35 -38.08 -5.35C-43.66 -5.35 -47.97 -7.21 -50.99 -10.94Z M4.5 -54.91L-2.95 -54.91L-2.95 -17.45C-2.95 -11.71 -1.18 -7.26 2.37 -4.11C5.91 -0.96 11.27 0.62 18.46 0.62C25.64 0.62 31.02 -0.96 34.59 -4.11C38.16 -7.26 39.94 -11.71 39.94 -17.45L39.94 -54.91L32.49 -54.91L32.49 -17.45C32.49 -13.42 31.31 -10.47 28.93 -8.61C26.55 -6.75 23.06 -5.82 18.46 -5.82C13.86 -5.82 10.38 -6.79 8.03 -8.72C5.67 -10.66 4.5 -13.7 4.5 -17.84Z M52.81 -55.14L52.81 0L60.18 0L60.18 -55.14Z M83.99 -48.7L83.99 0L91.44 0L91.44 -48.7L107.49 -48.7L107.49 -54.91L67.01 -54.91L67.01 -48.7Z M125.79 -23.11L125.79 0L133.16 0L133.16 -23.11L151.38 -54.91L143.32 -54.91L129.51 -30.32L115.79 -54.91L107.64 -54.91Z"></path></g></g></g></svg>